<svg xmlns="http://www.w3.org/2000/svg" viewBox="0 0 128 128">
  <rect fill="#3178c6" height="128" rx="6" width="128"/>
  <path fill="#fff" d="M82.1 89.3c1.6 2.7 4 4.7 7.2 6.1s6.4 2.1 9.6 2.1c1.9 0 3.7-.2 5.4-.7 1.7-.5 3.2-1.2 4.5-2.1 1.3-.9 2.3-2 3.1-3.4.8-1.3 1.1-2.9 1.1-4.6 0-2.3-.6-4.2-1.9-5.7-1.3-1.5-2.9-2.7-5-3.7-2.1-1-4.3-1.9-6.8-2.7-2.4-.8-4.7-1.7-6.8-2.7-2.1-1-3.7-2.3-5-3.9-1.3-1.6-1.9-3.7-1.9-6.4 0-2.3.5-4.3 1.5-6 1-1.7 2.3-3.2 4-4.3 1.7-1.2 3.6-2.1 5.7-2.7 2.1-.6 4.3-.9 6.6-.9 3 0 5.8.5 8.4 1.4 2.6.9 5 2.4 7.3 4.4l-5.2 6.9c-1.3-1.6-2.8-2.8-4.6-3.7-1.8-.9-3.8-1.3-6-1.3-1.7 0-3.3.2-4.7.6-1.4.4-2.7 1-3.7 1.8-1 .8-1.8 1.7-2.4 2.8-.6 1.1-.9 2.3-.9 3.6 0 2.1.6 3.8 1.9 5.1 1.3 1.3 2.9 2.4 5 3.4 2.1.9 4.3 1.8 6.8 2.6 2.5.8 4.8 1.8 6.9 2.9 2.1 1.1 3.8 2.6 5.1 4.4 1.3 1.8 1.9 4.2 1.9 7.1 0 2.5-.5 4.8-1.5 6.9-1 2.1-2.5 3.9-4.4 5.4-1.9 1.5-4.1 2.7-6.7 3.5-2.6.8-5.5 1.2-8.7 1.2-3.8 0-7.3-.6-10.5-1.9-3.2-1.3-6.1-3.2-8.5-5.9l5.9-6.4zm-44.4-46.1H27v-8.8h32.9v8.8h-10.7v49.9h-11.5V43.2z"/>
</svg>
