<svg width="200" height="200" viewBox="0 0 200 200" fill="none" xmlns="http://www.w3.org/2000/svg">
  <!-- Penrose Triangle - Light version (for light backgrounds) -->
  <!-- Top Triangle -->
  <path d="M100 20 L150 90 L130 90 L100 50 L70 90 L50 90 Z" fill="#404040"/>
  <path d="M100 20 L150 90 L140 90 L100 40 L60 90 L50 90 Z" fill="#707070"/>

  <!-- Right Bar -->
  <path d="M150 90 L180 140 L150 140 L150 170 L120 120 L130 90 Z" fill="#000000"/>
  <path d="M150 90 L175 135 L150 135 L150 165 L125 120 L135 90 Z" fill="#202020"/>

  <!-- Bottom Bar -->
  <path d="M20 140 L180 140 L150 170 L50 170 Z" fill="#000000"/>
  <path d="M30 140 L175 140 L150 165 L55 165 Z" fill="#101010"/>

  <!-- Left Bar Connection -->
  <path d="M20 140 L50 90 L70 90 L50 170 Z" fill="#505050"/>
  <path d="M25 140 L50 95 L65 95 L50 165 Z" fill="#808080"/>
</svg>
